# xmcd
#
# Track frame offsets: 
#        150
#        19763
#        39439
#        56942
#        88377
#        108583
#        131317
#        153250
#        175552
#        190665
#        209443
#        234399
#
# Disc length: 3474 seconds
#
# Revision: 0
# Processed by: cddbd v1.5.2PL0 Copyright (c) Steve Scherf et al.
# Submitted via: ExactAudioCopy v1.3
#
DISCID=9a0d900c
DTITLE=The Lucky Losers - A Winning Hand
DYEAR=2015
DGENRE=Modern Electric Blues
TTITLE0=Change In The Weather
TTITLE1=I Take What I Want
TTITLE2=What Have I Done (Feat. Cathy Lemons and Phil Berkowitz)
TTITLE3=A Winning Hand (Feat. Cathy Lemons, Kid Andersen, Phil Berkowi
TTITLE3=tz and Steve Freund)
TTITLE4=Suicide By Love
TTITLE5=What Was It You Wanted
TTITLE6=What Is Success
TTITLE7=Long Hard Road
TTITLE8=Baby You Got What It Takes
TTITLE9=Cry No More (Feat. Cathy Lemons and Phil Berkowitz)
TTITLE10=Detroit City Man
TTITLE11=Don’t You Lose It (Feat. Cathy Lemons, Kid Andersen and Phil Be
TTITLE11=rkowitz)
EXTD=
EXTT0=
EXTT1=
EXTT2=
EXTT3=
EXTT4=
EXTT5=
EXTT6=
EXTT7=
EXTT8=
EXTT9=
EXTT10=
EXTT11=
PLAYORDER=
